# xmcd CD database file
# Copyright (C) 1996 Ti Kan
#
# Track frame offsets:
#	150
#	18283
#	33107
#	49862
#	66774
#	83920
#	107086
#	122340
#	147069
#	160134
#	176730
#	195443
#	211643
# Disc length: 3025 seconds
#
# Revision: 1
# Processed by: cddbd v1.4PL0 Copyright (c) Steve Scherf et al.
# Submitted via: CDCOPY 4.744
#
DISCID=9e0bcf0d
DTITLE=Die Roosband - Mannem uff de Roll
DYEAR=1900
DGENRE=
TTITLE0=Spass in de Quadrate
TTITLE1=Schlauch
TTITLE2=Tina
TTITLE3=S mag disch k‰‰ner
TTITLE4=Colaball
TTITLE5=Was heesst Blues bloss uff Mannemerisch
TTITLE6=In Mannem uff de Roll
TTITLE7=P‰lzer Tornado
TTITLE8=Mannemer Blues
TTITLE9=Nis los heit
TTITLE10=Schmuse w‰r ned schlecht
TTITLE11=Scharfi Hummel
TTITLE12=Die Kneipe von Mannem
EXTD=
EXTT0=
EXTT1=
EXTT2=
EXTT3=
EXTT4=
EXTT5=
EXTT6=
EXTT7=
EXTT8=
EXTT9=
EXTT10=
EXTT11=
EXTT12=
PLAYORDER=
